<?xml version="1.0" encoding="UTF-8" standalone="no"?>
<svg
   width="16"
   height="16"
   viewBox="0 0 16 16"
   fill="none"
   version="1.1"
   id="svg10"
   sodipodi:docname="calculator.svg"
   inkscape:version="1.1.2 (b8e25be833, 2022-02-05)"
   xmlns:inkscape="http://www.inkscape.org/namespaces/inkscape"
   xmlns:sodipodi="http://sodipodi.sourceforge.net/DTD/sodipodi-0.dtd"
   xmlns="http://www.w3.org/2000/svg"
   xmlns:svg="http://www.w3.org/2000/svg">
  <defs
     id="defs14" />
  <sodipodi:namedview
     id="namedview12"
     pagecolor="#ffffff"
     bordercolor="#666666"
     borderopacity="1.0"
     inkscape:pageshadow="2"
     inkscape:pageopacity="0.0"
     inkscape:pagecheckerboard="0"
     showgrid="false"
     inkscape:zoom="44.9375"
     inkscape:cx="8"
     inkscape:cy="7.9888734"
     inkscape:window-width="1920"
     inkscape:window-height="1017"
     inkscape:window-x="-8"
     inkscape:window-y="-8"
     inkscape:window-maximized="1"
     inkscape:current-layer="svg10" />
  <path
     fill-rule="evenodd"
     clip-rule="evenodd"
     d="M8.8 0.8C8.8 0.3584 8.4416 0 8 0H0.8C0.3584 0 0 0.3584 0 0.8V8C0 8.4416 0.3584 8.8 0.8 8.8H8C8.4416 8.8 8.8 8.4416 8.8 8V0.8ZM5.2 3.6V2.8C5.2 2.3584 4.8416 2 4.4 2C3.9584 2 3.6 2.3584 3.6 2.8V3.6H2.8C2.3584 3.6 2 3.9584 2 4.4C2 4.8416 2.3584 5.2 2.8 5.2H3.6V6C3.6 6.4416 3.9584 6.8 4.4 6.8C4.8416 6.8 5.2 6.4416 5.2 6V5.2H6C6.4416 5.2 6.8 4.8416 6.8 4.4C6.8 3.9584 6.4416 3.6 6 3.6H5.2Z"
     fill="#23ADB4"
     id="path2" />
  <path
     fill-rule="evenodd"
     clip-rule="evenodd"
     d="M8.8 8C8.8 7.5584 8.4416 7.2 8 7.2H0.8C0.3584 7.2 0 7.5584 0 8V15.2C0 15.6416 0.3584 16 0.8 16H8C8.4416 16 8.8 15.6416 8.8 15.2V8ZM5.5312 11.6L6.0968 11.0344C6.4096 10.7224 6.4096 10.2152 6.0968 9.9032C5.7848 9.5904 5.2776 9.5904 4.9656 9.9032L4.4 10.4688L3.8344 9.9032C3.5224 9.5904 3.0152 9.5904 2.7032 9.9032C2.3904 10.2152 2.3904 10.7224 2.7032 11.0344L3.2688 11.6L2.7032 12.1656C2.3904 12.4776 2.3904 12.9848 2.7032 13.2968C3.0152 13.6096 3.5224 13.6096 3.8344 13.2968L4.4 12.7312L4.9656 13.2968C5.2776 13.6096 5.7848 13.6096 6.0968 13.2968C6.4096 12.9848 6.4096 12.4776 6.0968 12.1656L5.5312 11.6Z"
     fill="#23ADB4"
     id="path4" />
  <path
     fill-rule="evenodd"
     clip-rule="evenodd"
     d="M16 0.8C16 0.3584 15.6416 0 15.2 0H8C7.5584 0 7.2 0.3584 7.2 0.8V8C7.2 8.4416 7.5584 8.8 8 8.8H15.2C15.6416 8.8 16 8.4416 16 8V0.8ZM10 5.2H13.2C13.6416 5.2 14 4.8416 14 4.4C14 3.9584 13.6416 3.6 13.2 3.6H10C9.5584 3.6 9.2 3.9584 9.2 4.4C9.2 4.8416 9.5584 5.2 10 5.2Z"
     fill="#23ADB4"
     id="path6" />
  <path
     fill-rule="evenodd"
     clip-rule="evenodd"
     d="M16 8C16 7.5584 15.6416 7.2 15.2 7.2H8C7.5584 7.2 7.2 7.5584 7.2 8V15.2C7.2 15.6416 7.5584 16 8 16H15.2C15.6416 16 16 15.6416 16 15.2V8ZM10 13.6H13.2C13.6416 13.6 14 13.2416 14 12.8C14 12.3584 13.6416 12 13.2 12H10C9.5584 12 9.2 12.3584 9.2 12.8C9.2 13.2416 9.5584 13.6 10 13.6ZM10 11.2688H13.2C13.6416 11.2688 14 10.9104 14 10.4688C14 10.0272 13.6416 9.6688 13.2 9.6688H10C9.5584 9.6688 9.2 10.0272 9.2 10.4688C9.2 10.9104 9.5584 11.2688 10 11.2688Z"
     fill="#23ADB4"
     id="path8" />
  <path
     style="fill:#ffffff;stroke:none;stroke-width:0.0222531"
     d="M 0.62047686,15.967841 C 0.40098098,15.915175 0.19048156,15.74184 0.08493889,15.526854 L 0.02225313,15.399166 V 8 0.60083449 L 0.08493889,0.47314617 C 0.16480643,0.31045928 0.31045928,0.16480643 0.47314617,0.08493889 L 0.60083449,0.02225313 H 8 15.399166 l 0.127688,0.06268576 c 0.162687,0.07986754 0.30834,0.22552039 0.388207,0.38820728 l 0.06269,0.12768832 V 8 15.399166 l -0.06269,0.127688 c -0.07987,0.162687 -0.22552,0.30834 -0.388207,0.388207 l -0.127688,0.06269 -7.3546597,0.0034 c -4.0450626,0.0019 -7.38587585,-0.0041 -7.42402944,-0.01328 z M 13.54188,13.536079 c 0.157862,-0.0776 0.317897,-0.23796 0.393956,-0.394755 0.05178,-0.106749 0.05989,-0.151589 0.06058,-0.335039 7.37e-4,-0.195198 -0.0049,-0.223422 -0.0722,-0.360162 -0.0888,-0.18047 -0.245286,-0.328532 -0.423205,-0.400421 l -0.126879,-0.05127 H 11.59388 9.81363 L 9.6689847,12.0633 c -0.3391606,0.161469 -0.5207152,0.501793 -0.4632358,0.868334 0.04709,0.300289 0.2437463,0.532996 0.5366676,0.635048 0.108484,0.0378 0.2270366,0.03999 1.8959705,0.03515 l 1.78025,-0.0052 z m -9.9370702,-0.06998 c 0.1049348,-0.04804 0.2006222,-0.128271 0.4607361,-0.38631 L 4.3938414,12.75411 4.722651,13.076582 c 0.4140139,0.406035 0.4955725,0.451772 0.8072516,0.452695 0.1892447,5.61e-4 0.2252736,-0.0062 0.3437114,-0.06434 0.1613659,-0.07923 0.3003852,-0.214273 0.383561,-0.372591 C 6.313995,12.984195 6.319591,12.95267 6.319732,12.739913 6.319959,12.400972 6.285374,12.33699 5.8775303,11.921827 L 5.5553624,11.59388 5.8835703,11.260083 C 6.2764873,10.860476 6.3143168,10.79589 6.3267329,10.503477 6.3384585,10.227327 6.2854549,10.086845 6.0993048,9.9006952 5.9131547,9.7145451 5.7726727,9.6615415 5.4965229,9.6732671 5.2041104,9.6856832 5.1395245,9.7235127 4.7399166,10.11643 L 4.4061196,10.444638 4.0781695,10.122469 C 3.6630064,9.7146254 3.599024,9.6800409 3.2600834,9.6802675 3.047326,9.680401 3.0158013,9.6860052 2.9076495,9.742825 2.7493316,9.826001 2.6142885,9.9650201 2.5350589,10.126386 c -0.058152,0.118438 -0.064896,0.154467 -0.064336,0.343711 9.213e-4,0.311679 0.04666,0.393238 0.4526945,0.807252 l 0.3224728,0.32881 -0.3256765,0.328295 c -0.403265,0.406508 -0.4501165,0.489189 -0.4501165,0.794336 0,0.172748 0.00857,0.218632 0.062325,0.333797 0.1454456,0.311586 0.4304699,0.485388 0.7726073,0.47112 0.124219,-0.0052 0.2014663,-0.0226 0.2997797,-0.06761 z m 9.9405922,-2.265432 c 0.161444,-0.07568 0.304121,-0.218353 0.386855,-0.386855 0.05794,-0.117999 0.06496,-0.155168 0.06496,-0.343712 0,-0.182276 -0.008,-0.228268 -0.05842,-0.333797 -0.08247,-0.1727744 -0.194031,-0.2914346 -0.357131,-0.3798641 l -0.140774,-0.076325 -1.805882,-0.00607 -1.8058833,-0.00607 -0.1301394,0.048627 c -0.1815509,0.067837 -0.3824176,0.2696365 -0.450951,0.4530451 -0.1634444,0.437409 0.054684,0.912107 0.48947,1.065201 0.086355,0.03041 0.3173167,0.03407 1.8897557,0.02994 l 1.791377,-0.0047 z M 4.7008992,6.7492629 C 4.8459222,6.6957443 5.047093,6.5158838 5.1176383,6.3766692 5.1959286,6.2221708 5.2183588,6.0525098 5.2183588,5.6148282 V 5.2183588 h 0.3964694 c 0.6042114,0 0.7673152,-0.046161 0.9781327,-0.2768291 C 6.9233709,4.5800085 6.85808,4.003301 6.4561584,3.7331698 6.2750685,3.6114597 6.1759148,3.5938804 5.670509,3.5938804 H 5.2183588 V 3.1852348 c 0,-0.224755 -0.010163,-0.4622355 -0.022585,-0.527734 C 5.1464652,2.3974952 4.9905851,2.1914337 4.7558255,2.0759221 4.6187714,2.0084855 4.5906621,2.002844 4.3953836,2.0035808 4.2115981,2.0042742 4.1671818,2.0123373 4.0595302,2.0645492 3.8991397,2.1423399 3.7456623,2.2949356 3.6672855,2.4545406 3.6054513,2.580458 3.6049567,2.5849649 3.5979534,3.0861314 l -0.00705,0.5047682 -0.5047682,0.00705 c -0.4982956,0.00696 -0.5063582,0.00783 -0.628741,0.067938 -0.1613584,0.079245 -0.3146587,0.2322879 -0.3915355,0.3908791 -0.053666,0.1107082 -0.061576,0.1537226 -0.062274,0.3386134 -7.368e-4,0.1952785 0.0049,0.2233878 0.072341,0.3604419 0.1155116,0.2347596 0.3215731,0.3906397 0.5815787,0.4399486 0.065498,0.012422 0.3022907,0.022585 0.5262043,0.022585 H 3.590821 l 0.00709,0.4957134 0.00709,0.4957136 0.07314,0.1484558 C 3.8651732,6.7378552 4.290829,6.900593 4.7008992,6.7492629 Z M 13.342499,5.1957741 c 0.260006,-0.049309 0.466067,-0.205189 0.581579,-0.4399486 0.06744,-0.1370541 0.07308,-0.1651634 0.07234,-0.3604419 -6.94e-4,-0.1837855 -0.0088,-0.2282018 -0.06097,-0.3358534 C 13.85766,3.8991397 13.705064,3.7456623 13.545459,3.6672855 L 13.418637,3.605007 11.651439,3.5989218 C 9.699684,3.5922014 9.759224,3.5884192 9.5444426,3.7327686 9.3195765,3.8838956 9.1950596,4.1295539 9.1977618,4.4167315 9.19968,4.6205946 9.2661817,4.7874092 9.4069274,4.9414073 9.5352256,5.081786 9.64781,5.1480732 9.8247566,5.1874159 c 0.157841,0.035095 3.3369324,0.042648 3.5177424,0.00836 z"
     id="path905" />
</svg>
