<?xml version="1.0" encoding="UTF-8" standalone="no"?>
<svg
   width="15"
   height="14"
   viewBox="0 0 15 14"
   fill="none"
   version="1.1"
   id="svg4"
   sodipodi:docname="union.svg"
   inkscape:version="1.1.2 (b8e25be833, 2022-02-05)"
   xmlns:inkscape="http://www.inkscape.org/namespaces/inkscape"
   xmlns:sodipodi="http://sodipodi.sourceforge.net/DTD/sodipodi-0.dtd"
   xmlns="http://www.w3.org/2000/svg"
   xmlns:svg="http://www.w3.org/2000/svg">
  <defs
     id="defs8" />
  <sodipodi:namedview
     id="namedview6"
     pagecolor="#ffffff"
     bordercolor="#666666"
     borderopacity="1.0"
     inkscape:pageshadow="2"
     inkscape:pageopacity="0.0"
     inkscape:pagecheckerboard="0"
     showgrid="false"
     inkscape:zoom="51.357143"
     inkscape:cx="7.5062587"
     inkscape:cy="6.9902643"
     inkscape:window-width="1920"
     inkscape:window-height="1017"
     inkscape:window-x="-8"
     inkscape:window-y="-8"
     inkscape:window-maximized="1"
     inkscape:current-layer="svg4" />
  <path
     fill-rule="evenodd"
     clip-rule="evenodd"
     d="M9.91176 0H13.9265C14.2353 0 14.4853 0.25 14.5 0.558824V4.55882C14.5 4.86765 14.25 5.11765 13.9412 5.11765C13.6324 5.11765 13.3824 4.86765 13.3824 4.55882V1.88235L7.72059 7.55883C7.60294 7.66177 7.47059 7.72059 7.32353 7.72059C7.17647 7.72059 7.02941 7.66177 6.92647 7.55883C6.70588 7.33824 6.70588 7 6.92647 6.77941L12.5882 1.11765H9.91176C9.60294 1.11765 9.35294 0.867647 9.35294 0.558824C9.35294 0.25 9.60294 0 9.91176 0ZM1.61765 12.8676H10.5735V7.02938L11.6765 5.92644V13.4264C11.6765 13.7353 11.4265 13.9853 11.1176 13.9853H1.05882C0.75 13.9853 0.5 13.7353 0.5 13.4264V3.35291C0.5 3.04408 0.75 2.79408 1.05882 2.79408H8.55882L7.45588 3.89702H1.61765V12.8676Z"
     fill="#23ADB4"
     id="path2" />
  <path
     style="fill:#a0a0a0;stroke:none;stroke-width:0.0194715"
     d="M 0.90529814,13.9526 C 0.76027948,13.908487 0.62166805,13.784197 0.55643041,13.639777 0.51696054,13.552401 0.5168485,13.537702 0.51642207,8.3904535 L 0.51599444,3.2287514 0.57706454,3.1065393 C 0.62010411,3.0204095 0.66363189,2.9663146 0.72449486,2.923318 0.90733145,2.794153 0.57591169,2.8044027 4.7510431,2.7987902 L 8.5479833,2.7936861 8.0029121,3.339124 7.4578407,3.8845619 H 4.5321193 1.6063978 v 4.4979138 4.4979133 h 4.488178 4.4881782 V 9.9546679 7.0289465 l 0.545406,-0.5450714 0.545406,-0.5450712 -0.0051,3.8066759 -0.0051,3.8066762 -0.04073,0.08762 c -0.06137,0.132025 -0.13322,0.205637 -0.264967,0.271471 l -0.119159,0.05954 -5.1422303,-0.0017 c -2.8282271,-9.2e-4 -5.16419292,-0.0084 -5.19103556,-0.01652 z"
     id="path862" />
  <path
     style="fill:#ffffff;stroke:none;stroke-width:0.0194715"
     d="M 7.2317683,7.6988603 C 6.9795944,7.6614535 6.7819247,7.4376336 6.7779266,7.1849791 6.7738932,6.9300927 6.5494456,7.1730939 9.7185821,4.001237 11.296936,2.4215278 12.588317,1.1225362 12.588317,1.1145889 c 0,-0.00795 -0.624934,-0.01445 -1.388743,-0.01445 -1.5402006,0 -1.4912127,0.00381 -1.6453521,-0.12812297 C 9.3785466,0.82164464 9.3143817,0.53775908 9.4109712,0.33823167 9.4722339,0.21167973 9.5975717,0.0947627 9.721805,0.04828103 9.8248376,0.00973163 9.862764,0.00915327 11.952253,0.01426814 l 2.125633,0.0052034 0.08221,0.04393039 c 0.12894,0.06889938 0.213462,0.15387111 0.272362,0.27381308 l 0.05433,0.11062927 V 2.5702364 4.6926287 l -0.05262,0.099759 c -0.09787,0.1855234 -0.303862,0.3188777 -0.492576,0.3188777 -0.189214,0 -0.410095,-0.1443092 -0.499862,-0.3265771 L 13.39639,4.6926283 13.39089,3.281652 13.38539,1.8706756 10.509094,4.7449742 C 8.9271565,6.3258391 7.6035024,7.6339364 7.5676656,7.6518575 7.4802536,7.6955706 7.3409765,7.71506 7.2317683,7.6988603 Z"
     id="path901" />
  <path
     style="fill:#ffffff;stroke:none;stroke-width:0.0194715"
     d="m 5.0625869,13.951432 -4.18636993,-0.0098 -0.0711365,-0.04424 C 0.72934092,13.850251 0.61399904,13.731303 0.57114808,13.656104 0.54118127,13.603515 0.52299422,10.984406 0.51857027,6.0843971 L 0.51599444,3.231381 0.58901252,3.1079207 C 0.67158402,2.9683073 0.76227128,2.8876565 0.87621697,2.8525015 0.96889467,2.8239082 1.8448502,2.8160967 5.8075178,2.8085256 l 2.7115513,-0.00518 -0.5403499,0.5406085 -0.54035,0.5406085 H 4.5223836 1.6063978 V 8.3824764 12.88039 h 4.488178 4.4881782 V 9.9644036 7.048418 l 0.540334,-0.5400787 0.540333,-0.5400785 -0.0064,3.7919475 c -0.006,3.5731047 -0.0084,3.7964427 -0.04073,3.8698337 -0.05208,0.118024 -0.128735,0.197429 -0.263205,0.272629 l -0.121813,0.06812 -0.991174,-0.0048 c -0.5451464,-0.0026 -2.8750416,-0.0092 -5.1775451,-0.0146 z"
     id="path1088" />
</svg>
